<mxfile host="65bd71144e">
    <diagram id="bZa9XlomjkHtPiBs86N2" name="Page-1">
        <mxGraphModel dx="1669" dy="1176" grid="1" gridSize="10" guides="1" tooltips="1" connect="1" arrows="1" fold="1" page="1" pageScale="1" pageWidth="1700" pageHeight="1000" math="0" shadow="0">
            <root>
                <mxCell id="0"/>
                <mxCell id="1" parent="0"/>
                <mxCell id="68" value="&lt;font style=&quot;font-size: 47px;&quot;&gt;GCD&lt;/font&gt;" style="text;html=1;align=center;verticalAlign=middle;resizable=0;points=[];autosize=1;strokeColor=none;fillColor=none;" vertex="1" parent="1">
                    <mxGeometry x="120" y="60" width="130" height="70" as="geometry"/>
                </mxCell>
                <mxCell id="85" value="" style="group" vertex="1" connectable="0" parent="1">
                    <mxGeometry x="210" y="140" width="1300" height="800" as="geometry"/>
                </mxCell>
                <mxCell id="84" value="" style="rounded=0;whiteSpace=wrap;html=1;fontSize=47;" vertex="1" parent="85">
                    <mxGeometry x="140" width="1050" height="800" as="geometry"/>
                </mxCell>
                <mxCell id="41" style="edgeStyle=none;html=1;entryX=0;entryY=0.75;entryDx=0;entryDy=0;" edge="1" parent="85" source="49" target="84">
                    <mxGeometry relative="1" as="geometry">
                        <mxPoint x="130" y="612.5" as="targetPoint"/>
                        <mxPoint x="20" y="612" as="sourcePoint"/>
                    </mxGeometry>
                </mxCell>
                <mxCell id="2" value="A_SELECTOR" style="shape=trapezoid;perimeter=trapezoidPerimeter;whiteSpace=wrap;html=1;fixedSize=1;flipH=1;flipV=1;direction=north;points=[[0,0,0,0,0],[0,0.2,0,0,0],[0,0.25,0,0,0],[0,0.4,0,0,0],[0,0.5,0,0,0],[0,0.6,0,0,0],[0,0.75,0,0,0],[0,0.8,0,0,0],[0,1,0,0,0],[0.27,0.03,0,0,0],[0.27,0.97,0,0,0],[0.5,0.06,0,0,0],[0.5,0.94,0,0,0],[0.71,0.09,0,0,0],[0.71,0.91,0,0,0],[0.89,0.11,0,0,0],[0.89,0.89,0,0,0],[1,0.25,0,0,0],[1,0.5,0,0,0],[1,0.75,0,0,0]];" vertex="1" parent="85">
                    <mxGeometry x="400" y="190" width="100" height="160" as="geometry"/>
                </mxCell>
                <mxCell id="3" value="B_SELECTOR" style="shape=trapezoid;perimeter=trapezoidPerimeter;whiteSpace=wrap;html=1;fixedSize=1;flipH=1;flipV=1;direction=north;" vertex="1" parent="85">
                    <mxGeometry x="400" y="490" width="100" height="150" as="geometry"/>
                </mxCell>
                <mxCell id="22" style="edgeStyle=none;html=1;exitX=0.5;exitY=1;exitDx=0;exitDy=0;entryX=0.5;entryY=0;entryDx=0;entryDy=0;" edge="1" parent="85" source="4" target="3">
                    <mxGeometry relative="1" as="geometry">
                        <Array as="points">
                            <mxPoint x="620" y="420"/>
                            <mxPoint x="730" y="420"/>
                            <mxPoint x="730" y="740"/>
                            <mxPoint x="310" y="740"/>
                            <mxPoint x="310" y="565"/>
                        </Array>
                    </mxGeometry>
                </mxCell>
                <mxCell id="28" style="edgeStyle=none;html=1;exitX=0.5;exitY=1;exitDx=0;exitDy=0;entryX=0.4;entryY=1.025;entryDx=0;entryDy=0;entryPerimeter=0;" edge="1" parent="85" source="4" target="2">
                    <mxGeometry relative="1" as="geometry">
                        <Array as="points">
                            <mxPoint x="620" y="420"/>
                            <mxPoint x="260" y="420"/>
                            <mxPoint x="260" y="254"/>
                        </Array>
                    </mxGeometry>
                </mxCell>
                <mxCell id="4" value="REG_A" style="rounded=0;whiteSpace=wrap;html=1;flipH=1;flipV=1;" vertex="1" parent="85">
                    <mxGeometry x="560" y="310" width="120" height="60" as="geometry"/>
                </mxCell>
                <mxCell id="8" style="edgeStyle=none;html=1;exitX=0.5;exitY=1;exitDx=0;exitDy=0;entryX=0.5;entryY=0;entryDx=0;entryDy=0;" edge="1" parent="85" source="2" target="4">
                    <mxGeometry relative="1" as="geometry">
                        <Array as="points">
                            <mxPoint x="620" y="270"/>
                        </Array>
                    </mxGeometry>
                </mxCell>
                <mxCell id="24" style="edgeStyle=none;html=1;exitX=1;exitY=0.5;exitDx=0;exitDy=0;entryX=0.25;entryY=0;entryDx=0;entryDy=0;" edge="1" parent="85" source="6" target="3">
                    <mxGeometry relative="1" as="geometry">
                        <Array as="points">
                            <mxPoint x="710" y="510"/>
                            <mxPoint x="710" y="700"/>
                            <mxPoint x="340" y="700"/>
                            <mxPoint x="340" y="603"/>
                        </Array>
                    </mxGeometry>
                </mxCell>
                <mxCell id="27" style="edgeStyle=none;html=1;exitX=0;exitY=0.5;exitDx=0;exitDy=0;entryX=0.625;entryY=1;entryDx=0;entryDy=0;entryPerimeter=0;" edge="1" parent="85" source="6" target="2">
                    <mxGeometry relative="1" as="geometry">
                        <Array as="points">
                            <mxPoint x="530" y="510"/>
                            <mxPoint x="530" y="450"/>
                            <mxPoint x="240" y="450"/>
                            <mxPoint x="240" y="290"/>
                            <mxPoint x="290" y="290"/>
                        </Array>
                    </mxGeometry>
                </mxCell>
                <mxCell id="6" value="REG_B" style="rounded=0;whiteSpace=wrap;html=1;" vertex="1" parent="85">
                    <mxGeometry x="560" y="480" width="120" height="60" as="geometry"/>
                </mxCell>
                <mxCell id="7" style="edgeStyle=none;html=1;exitX=0.5;exitY=1;exitDx=0;exitDy=0;entryX=0.5;entryY=1;entryDx=0;entryDy=0;" edge="1" parent="85" source="3" target="6">
                    <mxGeometry relative="1" as="geometry">
                        <Array as="points">
                            <mxPoint x="620" y="565"/>
                        </Array>
                    </mxGeometry>
                </mxCell>
                <mxCell id="29" style="edgeStyle=none;html=1;exitX=0;exitY=0.5;exitDx=0;exitDy=0;" edge="1" parent="85" source="9">
                    <mxGeometry relative="1" as="geometry">
                        <mxPoint x="400" y="220" as="targetPoint"/>
                        <Array as="points">
                            <mxPoint x="290" y="110"/>
                            <mxPoint x="290" y="220"/>
                        </Array>
                    </mxGeometry>
                </mxCell>
                <mxCell id="9" value="REG A - B" style="rounded=0;whiteSpace=wrap;html=1;flipH=1;flipV=1;" vertex="1" parent="85">
                    <mxGeometry x="410" y="80" width="120" height="60" as="geometry"/>
                </mxCell>
                <mxCell id="13" style="edgeStyle=none;html=1;exitX=0;exitY=0.5;exitDx=0;exitDy=0;entryX=1;entryY=0.5;entryDx=0;entryDy=0;" edge="1" parent="85" source="12" target="9">
                    <mxGeometry relative="1" as="geometry"/>
                </mxCell>
                <mxCell id="12" value="SUB" style="ellipse;whiteSpace=wrap;html=1;aspect=fixed;" vertex="1" parent="85">
                    <mxGeometry x="650" y="70" width="80" height="80" as="geometry"/>
                </mxCell>
                <mxCell id="14" style="edgeStyle=none;html=1;exitX=0.5;exitY=1;exitDx=0;exitDy=0;entryX=0.5;entryY=1;entryDx=0;entryDy=0;" edge="1" parent="85" source="2" target="12">
                    <mxGeometry relative="1" as="geometry">
                        <Array as="points">
                            <mxPoint x="690" y="270"/>
                        </Array>
                    </mxGeometry>
                </mxCell>
                <mxCell id="15" style="edgeStyle=none;html=1;exitX=0.5;exitY=1;exitDx=0;exitDy=0;entryX=1;entryY=0.5;entryDx=0;entryDy=0;" edge="1" parent="85" source="3" target="12">
                    <mxGeometry relative="1" as="geometry">
                        <Array as="points">
                            <mxPoint x="790" y="565"/>
                            <mxPoint x="790" y="110"/>
                        </Array>
                    </mxGeometry>
                </mxCell>
                <mxCell id="37" style="edgeStyle=none;html=1;exitX=1;exitY=0.75;exitDx=0;exitDy=0;" edge="1" parent="85" source="18">
                    <mxGeometry relative="1" as="geometry">
                        <mxPoint x="1070" y="382.25" as="targetPoint"/>
                    </mxGeometry>
                </mxCell>
                <mxCell id="38" style="edgeStyle=none;html=1;exitX=1;exitY=0.5;exitDx=0;exitDy=0;" edge="1" parent="85" source="18">
                    <mxGeometry relative="1" as="geometry">
                        <mxPoint x="1070" y="324.75" as="targetPoint"/>
                    </mxGeometry>
                </mxCell>
                <mxCell id="18" value="CONTROLLER" style="rounded=0;whiteSpace=wrap;html=1;" vertex="1" parent="85">
                    <mxGeometry x="910" y="210" width="120" height="230" as="geometry"/>
                </mxCell>
                <mxCell id="19" style="edgeStyle=none;html=1;exitX=0.5;exitY=1;exitDx=0;exitDy=0;entryX=0;entryY=0.25;entryDx=0;entryDy=0;" edge="1" parent="85" source="2" target="18">
                    <mxGeometry relative="1" as="geometry"/>
                </mxCell>
                <mxCell id="20" style="edgeStyle=none;html=1;entryX=0;entryY=0.75;entryDx=0;entryDy=0;" edge="1" parent="85" source="3" target="18">
                    <mxGeometry relative="1" as="geometry">
                        <Array as="points">
                            <mxPoint x="860" y="565"/>
                            <mxPoint x="860" y="383"/>
                        </Array>
                    </mxGeometry>
                </mxCell>
                <mxCell id="40" style="edgeStyle=none;html=1;exitX=1;exitY=0.5;exitDx=0;exitDy=0;" edge="1" parent="85" source="34">
                    <mxGeometry relative="1" as="geometry">
                        <mxPoint x="1300" y="660" as="targetPoint"/>
                    </mxGeometry>
                </mxCell>
                <mxCell id="34" value="REG RESEULT" style="rounded=0;whiteSpace=wrap;html=1;" vertex="1" parent="85">
                    <mxGeometry x="910" y="630" width="120" height="60" as="geometry"/>
                </mxCell>
                <mxCell id="35" style="edgeStyle=none;html=1;exitX=0.5;exitY=1;exitDx=0;exitDy=0;entryX=0;entryY=0.5;entryDx=0;entryDy=0;" edge="1" parent="85" source="4" target="34">
                    <mxGeometry relative="1" as="geometry">
                        <Array as="points">
                            <mxPoint x="620" y="420"/>
                            <mxPoint x="730" y="420"/>
                            <mxPoint x="730" y="660"/>
                        </Array>
                    </mxGeometry>
                </mxCell>
                <mxCell id="36" style="edgeStyle=none;html=1;exitX=0.5;exitY=1;exitDx=0;exitDy=0;entryX=0.5;entryY=0;entryDx=0;entryDy=0;" edge="1" parent="85" source="18" target="34">
                    <mxGeometry relative="1" as="geometry"/>
                </mxCell>
                <mxCell id="42" value="A_IN" style="text;html=1;align=center;verticalAlign=middle;resizable=0;points=[];autosize=1;strokeColor=none;fillColor=none;" vertex="1" parent="85">
                    <mxGeometry y="315" width="50" height="30" as="geometry"/>
                </mxCell>
                <mxCell id="26" style="edgeStyle=none;html=1;entryX=0.888;entryY=1.01;entryDx=0;entryDy=0;entryPerimeter=0;" edge="1" parent="85" source="42" target="2">
                    <mxGeometry relative="1" as="geometry">
                        <mxPoint x="30" y="332" as="sourcePoint"/>
                    </mxGeometry>
                </mxCell>
                <mxCell id="43" value="B_IN" style="text;html=1;align=center;verticalAlign=middle;resizable=0;points=[];autosize=1;strokeColor=none;fillColor=none;" vertex="1" parent="85">
                    <mxGeometry x="2" y="510" width="50" height="30" as="geometry"/>
                </mxCell>
                <mxCell id="25" style="edgeStyle=none;html=1;entryX=0.75;entryY=0;entryDx=0;entryDy=0;" edge="1" parent="85" source="43" target="3">
                    <mxGeometry relative="1" as="geometry">
                        <mxPoint x="20" y="528" as="sourcePoint"/>
                    </mxGeometry>
                </mxCell>
                <mxCell id="44" value="A_IN" style="text;html=1;align=center;verticalAlign=middle;resizable=0;points=[];autosize=1;strokeColor=none;fillColor=none;" vertex="1" parent="85">
                    <mxGeometry x="330" y="295" width="50" height="30" as="geometry"/>
                </mxCell>
                <mxCell id="45" value="B_IN" style="text;html=1;align=center;verticalAlign=middle;resizable=0;points=[];autosize=1;strokeColor=none;fillColor=none;" vertex="1" parent="85">
                    <mxGeometry x="340" y="495" width="50" height="30" as="geometry"/>
                </mxCell>
                <mxCell id="46" value="A-B" style="text;html=1;align=center;verticalAlign=middle;resizable=0;points=[];autosize=1;strokeColor=none;fillColor=none;" vertex="1" parent="85">
                    <mxGeometry x="335" y="180" width="40" height="30" as="geometry"/>
                </mxCell>
                <mxCell id="47" value="A" style="text;html=1;align=center;verticalAlign=middle;resizable=0;points=[];autosize=1;strokeColor=none;fillColor=none;" vertex="1" parent="85">
                    <mxGeometry x="340" y="222" width="30" height="30" as="geometry"/>
                </mxCell>
                <mxCell id="48" value="B" style="text;html=1;align=center;verticalAlign=middle;resizable=0;points=[];autosize=1;strokeColor=none;fillColor=none;" vertex="1" parent="85">
                    <mxGeometry x="342" y="258" width="30" height="30" as="geometry"/>
                </mxCell>
                <mxCell id="49" value="CLK" style="text;html=1;align=center;verticalAlign=middle;resizable=0;points=[];autosize=1;strokeColor=none;fillColor=none;" vertex="1" parent="85">
                    <mxGeometry y="586" width="50" height="30" as="geometry"/>
                </mxCell>
                <mxCell id="50" value="A" style="text;html=1;align=center;verticalAlign=middle;resizable=0;points=[];autosize=1;strokeColor=none;fillColor=none;" vertex="1" parent="85">
                    <mxGeometry x="350" y="535" width="30" height="30" as="geometry"/>
                </mxCell>
                <mxCell id="51" value="B" style="text;html=1;align=center;verticalAlign=middle;resizable=0;points=[];autosize=1;strokeColor=none;fillColor=none;" vertex="1" parent="85">
                    <mxGeometry x="350" y="572" width="30" height="30" as="geometry"/>
                </mxCell>
                <mxCell id="52" value="OPCODE B" style="text;html=1;align=center;verticalAlign=middle;resizable=0;points=[];autosize=1;strokeColor=none;fillColor=none;" vertex="1" parent="85">
                    <mxGeometry x="470" y="645" width="90" height="30" as="geometry"/>
                </mxCell>
                <mxCell id="32" style="edgeStyle=none;html=1;entryX=0;entryY=0.5;entryDx=0;entryDy=0;" edge="1" parent="85" source="52" target="3">
                    <mxGeometry relative="1" as="geometry">
                        <mxPoint x="500" y="660" as="sourcePoint"/>
                        <Array as="points">
                            <mxPoint x="450" y="660"/>
                        </Array>
                    </mxGeometry>
                </mxCell>
                <mxCell id="53" value="OPCODE A" style="text;html=1;align=center;verticalAlign=middle;resizable=0;points=[];autosize=1;strokeColor=none;fillColor=none;" vertex="1" parent="85">
                    <mxGeometry x="460" y="370" width="90" height="30" as="geometry"/>
                </mxCell>
                <mxCell id="31" style="edgeStyle=none;html=1;entryX=1;entryY=0.5;entryDx=0;entryDy=0;entryPerimeter=0;" edge="1" parent="85" source="53" target="2">
                    <mxGeometry relative="1" as="geometry">
                        <mxPoint x="490" y="380" as="sourcePoint"/>
                        <Array as="points">
                            <mxPoint x="450" y="380"/>
                        </Array>
                    </mxGeometry>
                </mxCell>
                <mxCell id="54" value="DATA&amp;nbsp; A" style="text;html=1;align=center;verticalAlign=middle;resizable=0;points=[];autosize=1;strokeColor=none;fillColor=none;" vertex="1" parent="85">
                    <mxGeometry x="510" y="240" width="70" height="30" as="geometry"/>
                </mxCell>
                <mxCell id="55" value="DATA&amp;nbsp; B" style="text;html=1;align=center;verticalAlign=middle;resizable=0;points=[];autosize=1;strokeColor=none;fillColor=none;" vertex="1" parent="85">
                    <mxGeometry x="510" y="572" width="70" height="30" as="geometry"/>
                </mxCell>
                <mxCell id="56" value="DATA&amp;nbsp; A" style="text;html=1;align=center;verticalAlign=middle;resizable=0;points=[];autosize=1;strokeColor=none;fillColor=none;" vertex="1" parent="85">
                    <mxGeometry x="820" y="232" width="70" height="30" as="geometry"/>
                </mxCell>
                <mxCell id="57" value="DATA&amp;nbsp; A" style="text;html=1;align=center;verticalAlign=middle;resizable=0;points=[];autosize=1;strokeColor=none;fillColor=none;" vertex="1" parent="85">
                    <mxGeometry x="620" y="160" width="70" height="30" as="geometry"/>
                </mxCell>
                <mxCell id="58" value="DATA&amp;nbsp; B" style="text;html=1;align=center;verticalAlign=middle;resizable=0;points=[];autosize=1;strokeColor=none;fillColor=none;" vertex="1" parent="85">
                    <mxGeometry x="830" y="350" width="70" height="30" as="geometry"/>
                </mxCell>
                <mxCell id="59" value="DATA&amp;nbsp; B" style="text;html=1;align=center;verticalAlign=middle;resizable=0;points=[];autosize=1;strokeColor=none;fillColor=none;" vertex="1" parent="85">
                    <mxGeometry x="740" y="80" width="70" height="30" as="geometry"/>
                </mxCell>
                <mxCell id="60" value="OPCODE A" style="text;html=1;align=center;verticalAlign=middle;resizable=0;points=[];autosize=1;strokeColor=none;fillColor=none;" vertex="1" parent="85">
                    <mxGeometry x="1070" y="310" width="90" height="30" as="geometry"/>
                </mxCell>
                <mxCell id="61" value="OPCODE B" style="text;html=1;align=center;verticalAlign=middle;resizable=0;points=[];autosize=1;strokeColor=none;fillColor=none;" vertex="1" parent="85">
                    <mxGeometry x="1072" y="365" width="90" height="30" as="geometry"/>
                </mxCell>
                <mxCell id="62" value="DATA&amp;nbsp; A" style="text;html=1;align=center;verticalAlign=middle;resizable=0;points=[];autosize=1;strokeColor=none;fillColor=none;" vertex="1" parent="85">
                    <mxGeometry x="830" y="630" width="70" height="30" as="geometry"/>
                </mxCell>
                <mxCell id="63" value="DONE" style="text;html=1;align=center;verticalAlign=middle;resizable=0;points=[];autosize=1;strokeColor=none;fillColor=none;" vertex="1" parent="85">
                    <mxGeometry x="970" y="450" width="60" height="30" as="geometry"/>
                </mxCell>
                <mxCell id="64" value="DONE" style="text;html=1;align=center;verticalAlign=middle;resizable=0;points=[];autosize=1;strokeColor=none;fillColor=none;" vertex="1" parent="85">
                    <mxGeometry x="980" y="590" width="60" height="30" as="geometry"/>
                </mxCell>
                <mxCell id="65" value="RESULT" style="text;html=1;align=center;verticalAlign=middle;resizable=0;points=[];autosize=1;strokeColor=none;fillColor=none;" vertex="1" parent="85">
                    <mxGeometry x="1045" y="630" width="70" height="30" as="geometry"/>
                </mxCell>
                <mxCell id="66" value="RESULT" style="text;html=1;align=center;verticalAlign=middle;resizable=0;points=[];autosize=1;strokeColor=none;fillColor=none;" vertex="1" parent="85">
                    <mxGeometry x="1220" y="630" width="70" height="30" as="geometry"/>
                </mxCell>
                <mxCell id="75" value="CLK" style="text;html=1;align=center;verticalAlign=middle;resizable=0;points=[];autosize=1;strokeColor=none;fillColor=none;" vertex="1" parent="85">
                    <mxGeometry x="530" y="155" width="50" height="30" as="geometry"/>
                </mxCell>
                <mxCell id="33" style="edgeStyle=none;html=1;entryX=0.5;entryY=1;entryDx=0;entryDy=0;" edge="1" parent="85" source="75" target="9">
                    <mxGeometry relative="1" as="geometry">
                        <mxPoint x="520" y="170" as="sourcePoint"/>
                        <Array as="points">
                            <mxPoint x="470" y="170"/>
                        </Array>
                    </mxGeometry>
                </mxCell>
                <mxCell id="77" value="CLK" style="text;html=1;align=center;verticalAlign=middle;resizable=0;points=[];autosize=1;strokeColor=none;fillColor=none;" vertex="1" parent="85">
                    <mxGeometry x="720" y="325" width="50" height="30" as="geometry"/>
                </mxCell>
                <mxCell id="76" style="edgeStyle=none;html=1;fontSize=47;entryX=1;entryY=0.5;entryDx=0;entryDy=0;" edge="1" parent="85" source="77" target="4">
                    <mxGeometry relative="1" as="geometry">
                        <mxPoint x="720" y="340.36363636363626" as="sourcePoint"/>
                    </mxGeometry>
                </mxCell>
                <mxCell id="82" value="CLK" style="text;html=1;align=center;verticalAlign=middle;resizable=0;points=[];autosize=1;strokeColor=none;fillColor=none;" vertex="1" parent="85">
                    <mxGeometry x="650" y="435" width="50" height="30" as="geometry"/>
                </mxCell>
                <mxCell id="81" style="edgeStyle=none;html=1;fontSize=47;entryX=0.5;entryY=0;entryDx=0;entryDy=0;" edge="1" parent="85" source="82" target="6">
                    <mxGeometry relative="1" as="geometry">
                        <mxPoint x="650" y="450" as="sourcePoint"/>
                        <Array as="points">
                            <mxPoint x="620" y="450"/>
                        </Array>
                    </mxGeometry>
                </mxCell>
            </root>
        </mxGraphModel>
    </diagram>
</mxfile>